<?xml version="1.0" encoding="utf-8"?>
<!-- Generator: Adobe Illustrator 16.0.4, SVG Export Plug-In . SVG Version: 6.00 Build 0)  -->
<!DOCTYPE svg PUBLIC "-//W3C//DTD SVG 1.1//EN" "http://www.w3.org/Graphics/SVG/1.1/DTD/svg11.dtd">
<svg version="1.1" id="Ebene_1" xmlns="http://www.w3.org/2000/svg" xmlns:xlink="http://www.w3.org/1999/xlink" x="0px" y="0px"
	 width="91.875px" height="88.078px" viewBox="89.725 138.103 91.875 88.078" enable-background="new 89.725 138.103 91.875 88.078"
	 xml:space="preserve">
<path display="none" fill="#D91404" d="M155.074,191.306c-13.354,8.605-26.586,17.134-40.167,25.884
	c20.339,2.777,40.315,5.504,60.688,8.285C168.655,213.918,161.893,202.66,155.074,191.306L155.074,191.306z M181.337,153.225
	c-1.793,2.691-3.59,5.382-5.38,8.075c-6.15,9.252-12.298,18.503-18.44,27.757c-0.342,0.517-0.786,0.926-0.304,1.72
	c5.938,9.802,11.826,19.634,17.729,29.455c0.931,1.552,1.874,3.097,3.079,4.585l3.58-71.516L181.337,153.225L181.337,153.225z
	 M100.305,183.786c0.278,0.264,0.971,0.416,1.293,0.257c5.694-2.799,11.424-5.535,16.994-8.564c1.815-0.986,3.21-2.757,4.776-4.191
	c5.182-4.751,10.354-9.513,15.525-14.276c0.317-0.292,0.69-0.575,0.881-0.944c1.857-3.631,3.682-7.278,5.572-11.034
	c-2.254-0.844-4.391-1.674-6.553-2.429c-0.293-0.103-0.754,0.102-1.075,0.279c-5.005,2.797-10.105,5.444-14.953,8.494
	c-2.426,1.525-4.402,3.773-6.55,5.733c-3.459,3.159-6.917,6.325-10.328,9.54c-0.906,0.853-1.73,1.827-2.434,2.853
	c-2.334,3.396-4.596,6.841-6.964,10.385C97.816,181.26,99.018,182.568,100.305,183.786L100.305,183.786z M121.114,179.142
	c-2.831,11.966-5.648,23.864-8.557,36.153c13.643-8.79,26.97-17.377,40.208-25.907C142.229,185.977,131.727,182.578,121.114,179.142
	L121.114,179.142z M143.685,159.048l11.597,28.209c7.57-11.371,14.989-22.517,22.577-33.917
	C166.333,155.265,155.082,157.144,143.685,159.048L143.685,159.048z M121.59,176.694c10.379,3.371,20.553,6.673,31.02,10.07
	c-3.887-9.471-7.641-18.61-11.474-27.943L121.59,176.694L121.59,176.694z M100.734,190.764l-10.857,25.953
	c6.957-0.206,13.703-0.405,20.677-0.611C107.28,207.655,104.069,199.37,100.734,190.764z M110.8,210.087l0.256-0.056
	c2.481-10.324,5-20.576,7.536-31.302c-5.654,2.938-11.047,5.741-16.589,8.621C104.83,194.702,107.846,202.454,110.8,210.087z
	 M173.686,151.666c-3.302-0.875-6.602-1.753-9.907-2.621c-4.748-1.248-9.499-2.482-14.244-3.742
	c-0.592-0.157-1.022-0.26-1.371,0.455c-1.677,3.436-3.407,6.847-5.11,10.269c-0.053,0.106-0.042,0.245-0.083,0.508
	c10.282-1.558,20.496-3.106,30.708-4.653L173.686,151.666z M154.531,143.85c8.867,2.454,17.734,4.906,26.912,7.445l-4.447-12.67
	c-7.535,1.671-14.98,3.322-22.425,4.973L154.531,143.85z M162.678,225.874l-22.079-3.014c-9.171-1.252-18.326-2.63-27.517-3.689
	c-3.333-0.383-6.756-0.03-10.136,0.027c-2.777,0.047-5.555,0.153-8.331,0.241c-0.287,0.008-0.572,0.066-0.856,0.373
	c22.956,2.123,45.915,4.245,68.87,6.369L162.678,225.874L162.678,225.874z M90.329,208.795c2.96-6.864,5.904-13.733,8.875-20.591
	c0.298-0.689,0.276-1.156-0.306-1.708c-1.244-1.184-2.397-2.458-3.756-3.87l-5.417,26.74l0.199,0.095
	C90.062,209.239,90.228,209.033,90.329,208.795L90.329,208.795z M148.637,142.038c4.989-1.288,10.05-2.292,15.082-3.416
	c0.325-0.074,0.643-0.181,0.963-0.273l-0.049-0.246l-21.619,2.908C145.046,141.898,146.61,142.561,148.637,142.038L148.637,142.038z
	"/>
<path fill="#FFD845" d="M111.834,203.528v-10.007c0-6.923,6.174-12.828,13.288-12.828h20.95c5.832,0,9.447-5.004,9.447-10.86
	v-19.972c0-5.685-4.275-9.954-9.968-10.903c-3.603-0.599-7.08-0.872-10.666-0.855c-3.584,0.017-7.287,0.322-10.3,0.855
	c-8.876,1.567-10.765,4.85-10.765,10.903v7.997h20.849v2.979h-27.907c-6.096,0-11.433,3.505-13.104,10.476
	c-1.925,7.99-2.01,13.107,0,21.45c1.491,6.209,5.053,10.766,11.147,10.766H111.834L111.834,203.528z M123.802,152.525
	c-2.175,0-3.936-1.782-3.936-3.984c0-2.213,1.76-4.01,3.936-4.01c2.167,0,3.936,1.798,3.936,4.01
	C127.738,150.743,125.969,152.525,123.802,152.525z M177.534,171.312c-1.506-6.069-4.384-10.476-10.487-10.476h-8.55v8.997
	c0,7.221-5.444,13.838-12.425,13.838h-20.95c-5.739,0-11.301,4.372-11.301,10.12v19.972c0,5.684,5.35,9.028,10.896,10.657
	c6.638,1.954,12.688,2.306,20.632,0c5.28-1.528,10.171-4.604,10.171-10.657v-7.257h-20.849v-2.978h32.376
	c6.096,0,8.367-4.385,10.487-10.766C179.723,186.193,179.63,179.742,177.534,171.312L177.534,171.312z M147.391,211.098
	c2.174,0,3.937,1.783,3.937,3.986c0,2.211-1.761,4.009-3.937,4.009c-2.166,0-3.935-1.798-3.935-4.009
	C143.456,212.88,145.225,211.098,147.391,211.098z"/>
</svg>
